<?xml version="1.0" encoding="UTF-8"?>
<svg id="Layer_1" xmlns="http://www.w3.org/2000/svg" version="1.1" viewBox="0 0 590.7 121.4">
  <!-- Generator: Adobe Illustrator 30.2.1, SVG Export Plug-In . SVG Version: 2.1.1 Build 1)  -->
  <defs>
    <style>
      .st0 {
        fill: #fff;
      }
    </style>
  </defs>
  <path class="st0" d="M4.5,27h11.7v9.9h1.1c.2-3.5,1.4-6.2,3.4-8.2,2-2,4.7-3,8.1-3s5.9,1,8.1,3c2.2,2,3.7,4.7,4.5,8.2h.5c.2-3.5,1.4-6.2,3.4-8.2,2-2,4.7-3,8.1-3s7.4,1.5,9.7,4.6c2.3,3.1,3.5,7.3,3.5,12.7v51.9h-13v-50.7c0-5.1-2-7.7-5.9-7.7s-5.7,2.6-5.7,7.9v50.4h-13v-50.7c0-4.2-1.4-6.7-4.1-7.4-.8-.2-1.4-.2-1.9-.2s-1,0-1.9.2c-2.6.7-3.8,3.3-3.8,7.7v50.4H4.5V27Z"/>
  <path class="st0" d="M110.2,115.4h-16.3l9.3-24.2-26.2-64.1h16.9l13.3,36.2c.6,1.5,1.1,3,1.4,4.6.4,1.6.6,3.1.8,4.5.2,1.6.5,3.1.6,4.7h1c0-1.5.2-3,.5-4.7.2-1.4.4-2.9.7-4.5.3-1.6.7-3.2,1.2-4.6l12.6-36.2h16.3l-32.2,88.3Z"/>
  <path class="st0" d="M184.6,96.2c-4.4,0-8.5-.6-12.1-1.9-3.6-1.2-6.7-3-9.3-5.3-2.6-2.3-4.5-5.1-5.9-8.3-1.4-3.3-2.1-6.9-2.1-10.9v-17.4c0-4,.7-7.7,2.1-10.9,1.4-3.3,3.4-6,5.9-8.3,2.6-2.3,5.6-4.1,9.3-5.4,3.6-1.3,7.7-1.9,12.1-1.9s7.6.6,11,1.7c3.4,1.1,6.3,2.7,8.9,4.8,2.6,2.1,4.7,4.6,6.4,7.5,1.7,2.9,2.8,6.2,3.4,9.9h-15.4c-.6-3.1-2.1-5.7-4.7-7.6-2.6-1.9-5.7-2.9-9.5-2.9s-7.8,1.2-10.3,3.5c-2.5,2.3-3.7,5.5-3.7,9.6v17.4c0,4,1.2,7.2,3.6,9.5,2.4,2.3,5.9,3.5,10.3,3.5s6.9-1,9.5-2.9c2.6-1.9,4.2-4.5,4.8-7.6h15.4c-.6,3.7-1.7,7-3.4,9.9-1.7,2.9-3.8,5.4-6.4,7.5-2.6,2.1-5.6,3.7-8.9,4.8s-7,1.7-10.9,1.7Z"/>
  <path class="st0" d="M257.9,96.2c-4.4,0-8.5-.6-12.2-1.9-3.7-1.3-6.8-3.1-9.3-5.4-2.6-2.3-4.5-5.1-5.9-8.4-1.4-3.3-2.1-7-2.1-11v-17.2c0-4,.7-7.7,2.1-11,1.4-3.3,3.4-6.1,5.9-8.4,2.6-2.3,5.7-4.1,9.3-5.3,3.7-1.2,7.7-1.9,12.2-1.9s8.5.6,12.1,1.9c3.6,1.3,6.7,3.1,9.3,5.4,2.6,2.3,4.5,5.1,5.9,8.4,1.4,3.3,2.1,7,2.1,11v12.4h-43.6v4.4c0,4.5,1.3,8.1,3.8,10.6,2.5,2.6,6,3.8,10.4,3.8s6.2-.5,8.6-1.5c2.3-1,4-2.5,5-4.5h15.2c-.7,2.8-2,5.4-3.7,7.7-1.7,2.3-3.9,4.3-6.4,5.9-2.5,1.6-5.4,2.8-8.5,3.7-3.2.9-6.6,1.3-10.2,1.3ZM272.1,54.5v-2c0-4.5-1.2-8-3.7-10.6-2.5-2.5-6-3.8-10.5-3.8s-7.9,1.3-10.4,3.8c-2.5,2.5-3.8,6-3.8,10.4v2.1h28.4Z"/>
  <path class="st0" d="M335.9,4.8v68.2c0,2.6.7,4.5,2.2,5.9,1.4,1.4,3.4,2.1,5.7,2.1h20.3v14h-21.4c-6.9,0-12.4-1.9-16.3-5.8-4-3.9-5.9-9.3-5.9-16.2V18.7h-21.6V4.8h37.1Z"/>
  <path class="st0" d="M410,4.8v68.2c0,2.6.7,4.5,2.2,5.9,1.4,1.4,3.4,2.1,5.7,2.1h20.3v14h-21.4c-6.9,0-12.4-1.9-16.3-5.8-4-3.9-5.9-9.3-5.9-16.2V18.7h-21.6V4.8h37.1Z"/>
  <path class="st0" d="M449.3,27h11.7v9.9h1.1c.2-3.5,1.4-6.2,3.4-8.2,2-2,4.7-3,8.1-3s5.9,1,8.1,3c2.2,2,3.7,4.7,4.5,8.2h.5c.2-3.5,1.4-6.2,3.4-8.2,2-2,4.7-3,8.1-3s7.4,1.5,9.7,4.6c2.3,3.1,3.5,7.3,3.5,12.7v51.9h-13v-50.7c0-5.1-2-7.7-5.9-7.7s-5.7,2.6-5.7,7.9v50.4h-13v-50.7c0-4.2-1.4-6.7-4.1-7.4-.8-.2-1.4-.2-1.9-.2s-1,0-1.9.2c-2.6.7-3.8,3.3-3.8,7.7v50.4h-13V27Z"/>
  <path class="st0" d="M524.1,98.1h60.8v14h-60.8v-14Z"/>
</svg>